<?xml version="1.0" encoding="utf-8"?>
<!-- Generator: Adobe Illustrator 22.1.0, SVG Export Plug-In . SVG Version: 6.00 Build 0)  -->
<svg version="1.1" id="Layer_1" xmlns="http://www.w3.org/2000/svg" xmlns:xlink="http://www.w3.org/1999/xlink" x="0px" y="0px"
	 viewBox="0 0 223.9 224" style="enable-background:new 0 0 223.9 224;" xml:space="preserve">
<style type="text/css">
	.st0{fill:#FFFFFF;}
</style>
<g>
	<path class="st0" d="M218.1,128.2c-12.2-12-47-8.7-64.4-6.5c-17.2-10.5-28.7-25-36.8-46.3c3.9-16.1,10.1-40.6,5.4-56
		c-4.2-26.2-37.8-23.6-42.6-5.9c-4.4,16.1-0.4,38.5,7,67.1c-10,23.9-24.9,56-35.4,74.4c-20,10.3-47,26.2-51,46.2
		C-3,217,26.3,256.4,76.4,170c22.4-7.4,46.8-16.5,68.4-20.1c18.9,10.2,41,17,55.8,17C226.1,166.9,228.6,138.7,218.1,128.2z M20,206
		c5.1-13.7,24.5-29.5,30.4-35C31.4,201.3,20,206.7,20,206z M101.6,15.4c7.4,0,6.7,32.1,1.8,40.8C99,42.3,99.1,15.4,101.6,15.4z
		 M77.2,152c9.7-16.9,18-37,24.7-54.7c8.3,15.1,18.9,27.2,30.1,35.5C111.2,137.1,93.1,145.9,77.2,152z M208.8,147c0,0-5,6-37.3-7.8
		C206.6,136.6,212.4,144.6,208.8,147z"/>
</g>
</svg>
