<?xml version="1.0" encoding="utf-8"?>
<!-- Generator: Adobe Illustrator 22.1.0, SVG Export Plug-In . SVG Version: 6.00 Build 0)  -->
<svg version="1.1" id="Layer_1" xmlns="http://www.w3.org/2000/svg" xmlns:xlink="http://www.w3.org/1999/xlink" x="0px" y="0px"
	 viewBox="0 0 40 40" style="enable-background:new 0 0 40 40;" xml:space="preserve">
<style type="text/css">
	.st0{fill:#CFC4B2;}
	.st1{fill:#212420;}
</style>
<g>
	<rect class="st0" width="40" height="40"/>
	<path class="st1" d="M13.3,14.4L13.3,14.4c1.2,0,2.3,0.2,3.2,0.7l0,0l0,0c0.9,0.5,1.7,1.2,2.2,2l0,0l0,0c0.5,0.9,0.8,1.9,0.8,3l0,0
		l0,0c0,1.1-0.3,2.1-0.8,3l0,0l0,0c-0.5,0.9-1.3,1.6-2.2,2l0,0l0,0c-1,0.5-2,0.7-3.3,0.7l0,0H8.3V14.4H13.3L13.3,14.4z M13.4,23.5
		L13.4,23.5c0.6,0,1.1-0.1,1.5-0.4l0,0l0,0c0.5-0.3,0.8-0.7,1.1-1.2l0,0l0,0c0.3-0.5,0.4-1.1,0.4-1.7l0,0l0,0c0-0.7-0.1-1.2-0.4-1.7
		l0,0l0,0c-0.3-0.5-0.6-0.9-1.1-1.2l0,0l0,0c-0.5-0.3-1-0.4-1.6-0.4l0,0h-1.9v6.7H13.4L13.4,23.5z M28.9,21.3l0-7h2.8v11.6H29
		L23.8,19v6.9H21V14.4h2.7L28.9,21.3L28.9,21.3z"/>
</g>
</svg>
